<?xml version="1.0" standalone="no"?>
<!DOCTYPE svg PUBLIC "-//W3C//DTD SVG 20010904//EN"
 "http://www.w3.org/TR/2001/REC-SVG-20010904/DTD/svg10.dtd">
<svg version="1.0" xmlns="http://www.w3.org/2000/svg"
 width="4000.000000pt" height="560.000000pt" viewBox="0 0 4000.000000 560.000000"
 preserveAspectRatio="xMidYMid meet">

<g transform="translate(0.000000,560.000000) scale(0.100000,-0.100000)"
fill="#000000" stroke="none">
<path d="M5875 3829 c-355 -47 -586 -236 -709 -577 -64 -179 -104 -510 -92
-757 22 -427 117 -694 321 -901 138 -140 282 -213 484 -248 348 -59 712 40
931 254 136 133 225 294 268 488 16 69 -10 52 -46 -30 -102 -232 -297 -362
-602 -403 -220 -30 -414 -15 -586 46 -438 154 -724 508 -724 892 0 352 162
632 445 771 244 120 505 138 825 56 169 -43 367 -133 458 -207 24 -19 51 -33
62 -31 18 3 16 9 -19 80 -59 116 -116 195 -205 283 -129 128 -273 213 -456
267 -77 23 -250 31 -355 17z"/>
<path d="M1425 3813 c29 -73 87 -263 102 -333 26 -126 24 -351 -5 -496 -29
-145 -120 -455 -227 -774 -126 -375 -167 -552 -182 -777 l-6 -103 307 0 308 0
-32 53 c-59 98 -158 312 -189 406 -53 160 -75 297 -74 461 0 217 32 358 125
545 54 106 210 367 216 360 9 -9 249 -472 321 -620 149 -304 221 -573 221
-825 0 -78 -22 -269 -39 -342 l-9 -38 273 0 c307 0 281 -8 291 83 15 134 -71
326 -274 615 -71 100 -79 117 -72 140 5 15 95 324 200 687 104 363 194 669
198 679 7 15 13 6 31 -45 34 -94 81 -182 204 -389 247 -412 291 -544 291 -855
0 -192 -18 -299 -80 -485 -35 -105 -115 -280 -174 -378 l-32 -52 303 0 302 0
-6 103 c-14 229 -64 439 -194 817 -85 244 -172 549 -205 714 -30 148 -32 417
-4 546 15 70 62 227 91 303 7 16 -9 17 -243 17 l-250 0 -16 -42 c-8 -24 -115
-389 -237 -813 -122 -423 -222 -771 -224 -773 -1 -2 -54 66 -116 150 -181 244
-368 531 -452 694 l-77 152 64 123 c107 206 136 350 93 462 l-19 47 -255 0
c-239 0 -255 -1 -248 -17z"/>
<path d="M4147 3698 c169 -414 253 -742 253 -993 0 -188 -21 -278 -160 -695
-54 -162 -106 -331 -114 -375 -16 -79 -36 -239 -36 -282 l0 -23 305 0 305 0
-24 38 c-13 21 -43 76 -66 123 -135 267 -198 556 -187 849 9 212 30 316 140
690 82 277 101 374 101 510 0 116 -9 162 -44 245 l-19 45 -254 0 -254 0 54
-132z"/>
<path d="M7460 3822 c0 -5 27 -75 60 -158 169 -419 240 -702 240 -961 0 -177
-25 -290 -140 -633 -126 -376 -148 -464 -165 -667 l-6 -73 306 0 306 0 -26 43
c-87 139 -178 374 -215 549 -24 117 -43 289 -33 299 16 14 278 66 463 91 145
19 582 16 760 -6 79 -9 147 -20 150 -22 2 -3 -37 -128 -87 -277 -99 -293 -131
-426 -140 -579 l-6 -98 301 0 c166 0 302 3 302 6 0 3 -8 18 -19 32 -37 53
-120 231 -156 332 -19 57 -48 160 -63 229 -24 115 -26 145 -27 351 0 259 10
327 96 618 27 92 68 237 91 322 39 148 41 162 42 305 1 122 -3 160 -18 205
-36 109 -11 100 -297 100 -197 0 -250 -3 -246 -12 273 -654 344 -996 281
-1343 -8 -44 -20 -95 -26 -114 l-10 -34 -62 7 c-306 32 -407 39 -606 39 -245
1 -348 -9 -574 -54 -82 -16 -151 -27 -154 -25 -8 9 18 247 38 348 11 53 50
197 86 320 85 286 113 410 121 528 7 112 -7 207 -42 286 l-24 54 -250 0 c-138
0 -251 -4 -251 -8z"/>
<path d="M10467 3748 c58 -200 54 -378 -12 -576 -19 -57 -80 -197 -134 -311
-233 -486 -381 -989 -397 -1346 -2 -66 -7 -135 -9 -152 l-4 -33 275 0 c152 0
274 3 272 8 -1 4 -38 77 -80 162 -76 153 -133 305 -162 428 l-14 62 544 0 544
0 0 -112 c0 -141 -16 -319 -39 -449 l-17 -99 248 0 248 0 7 28 c16 56 8 214
-16 297 -46 164 -90 262 -372 815 -91 179 -189 381 -218 450 -113 268 -182
523 -200 741 -5 63 -15 126 -22 142 l-12 27 -227 0 -227 0 24 -82z m479 -413
c18 -77 74 -268 124 -425 129 -403 177 -596 205 -817 l7 -53 -545 0 -545 0 -7
77 c-11 112 0 286 24 375 45 173 127 307 383 628 172 216 240 313 280 394 l23
49 9 -44 c4 -24 23 -107 42 -184z"/>
<path d="M12731 3815 c-174 -32 -318 -110 -434 -235 -149 -162 -218 -412 -149
-546 30 -58 118 -134 203 -176 122 -60 324 -110 501 -124 90 -8 91 -7 -42 -49
-360 -114 -666 -405 -687 -653 -8 -92 17 -199 70 -305 32 -64 60 -101 126
-167 98 -97 166 -140 284 -181 362 -125 744 0 988 324 54 72 159 261 159 287
0 21 -32 8 -83 -33 -247 -201 -804 -308 -1192 -228 -276 57 -370 215 -260 437
46 94 166 220 284 298 198 131 444 219 656 234 88 7 90 8 90 32 0 23 -4 25
-55 27 -451 19 -664 55 -833 139 -125 63 -187 149 -187 259 0 137 90 222 285
272 101 25 508 26 642 0 248 -47 468 -135 583 -234 38 -33 70 -43 70 -22 0 25
-108 219 -162 290 -210 279 -534 412 -857 354z"/>
<path d="M14177 3698 c169 -414 253 -742 253 -993 0 -188 -21 -278 -160 -695
-54 -162 -106 -331 -114 -375 -16 -79 -36 -239 -36 -282 l0 -23 880 0 880 0 0
300 c0 165 -3 300 -7 300 -13 0 -133 -98 -255 -206 -157 -140 -237 -198 -353
-255 -135 -65 -236 -89 -411 -96 l-141 -6 -22 32 c-12 17 -44 77 -71 134 -138
293 -194 622 -159 935 15 139 42 255 120 520 96 327 113 412 113 552 0 116 -9
162 -44 245 l-19 45 -254 0 -254 0 54 -132z"/>
<path d="M17265 3751 c125 -295 219 -594 255 -806 19 -109 21 -154 17 -275 -7
-179 -31 -291 -123 -554 -126 -363 -162 -505 -180 -709 l-7 -79 404 4 c369 4
413 6 512 27 376 77 682 264 857 521 57 84 134 248 159 340 48 173 65 429 40
606 -66 476 -387 805 -917 938 -198 50 -283 58 -679 63 l-372 5 34 -81z m785
12 c52 -8 137 -30 188 -49 312 -111 445 -336 483 -819 46 -581 -81 -1041 -365
-1320 -132 -130 -254 -189 -392 -190 -59 0 -80 5 -130 30 -57 29 -60 33 -106
125 -117 237 -178 542 -164 818 4 82 28 254 70 505 81 474 104 638 112 801 l7
128 101 -6 c56 -4 144 -14 196 -23z"/>
<path d="M20137 3748 c58 -200 54 -378 -12 -576 -19 -57 -80 -197 -134 -311
-233 -486 -381 -989 -397 -1346 -2 -66 -7 -135 -9 -152 l-4 -33 275 0 c152 0
274 3 272 8 -1 4 -38 77 -80 162 -76 153 -133 305 -162 428 l-14 62 544 0 544
0 0 -112 c0 -141 -16 -319 -39 -449 l-17 -99 248 0 248 0 7 28 c16 56 8 214
-16 297 -46 164 -90 262 -372 815 -91 179 -189 381 -218 450 -113 268 -182
523 -200 741 -5 63 -15 126 -22 142 l-12 27 -227 0 -227 0 24 -82z m479 -413
c18 -77 74 -268 124 -425 129 -403 177 -596 205 -817 l7 -53 -545 0 -545 0 -7
77 c-11 112 0 286 24 375 45 173 127 307 383 628 172 216 240 313 280 394 l23
49 9 -44 c4 -24 23 -107 42 -184z"/>
<path d="M21806 3759 c71 -372 244 -705 563 -1084 42 -49 145 -166 229 -259
83 -93 152 -173 152 -177 0 -11 -117 -89 -285 -189 -231 -138 -315 -198 -410
-294 -103 -103 -152 -189 -179 -313 -28 -126 -63 -113 294 -113 l310 0 -7 28
c-5 15 -8 74 -8 132 1 240 108 434 449 815 251 280 331 372 403 463 260 326
425 660 486 987 l15 75 -280 0 c-261 0 -279 -1 -274 -17 30 -103 41 -560 17
-708 -51 -312 -157 -525 -362 -728 l-110 -108 -31 22 c-56 40 -176 166 -228
241 -179 253 -251 542 -236 943 4 99 13 219 19 268 l13 87 -277 0 -277 0 14
-71z"/>
<path d="M24447 3748 c58 -200 54 -378 -12 -576 -19 -57 -80 -197 -134 -311
-233 -486 -381 -989 -397 -1346 -2 -66 -7 -135 -9 -152 l-4 -33 275 0 c152 0
274 3 272 8 -1 4 -38 77 -80 162 -76 153 -133 305 -162 428 l-14 62 544 0 544
0 0 -112 c0 -141 -16 -319 -39 -449 l-17 -99 248 0 248 0 7 28 c16 56 8 214
-16 297 -46 164 -90 262 -372 815 -91 179 -189 381 -218 450 -113 268 -182
523 -200 741 -5 63 -15 126 -22 142 l-12 27 -227 0 -227 0 24 -82z m479 -413
c18 -77 74 -268 124 -425 129 -403 177 -596 205 -817 l7 -53 -545 0 -545 0 -7
77 c-11 112 0 286 24 375 45 173 127 307 383 628 172 216 240 313 280 394 l23
49 9 -44 c4 -24 23 -107 42 -184z"/>
<path d="M26160 3663 c167 -417 240 -708 240 -952 0 -192 -22 -288 -160 -701
-54 -162 -106 -331 -114 -375 -16 -79 -36 -239 -36 -282 l0 -23 305 0 305 0
-24 38 c-77 123 -161 322 -199 477 -42 166 -51 250 -51 445 0 224 17 328 101
613 84 289 122 440 129 518 4 38 10 72 14 74 3 2 202 -483 441 -1078 l435
-1082 251 -3 c248 -2 252 -2 263 19 29 53 52 141 57 220 10 144 -14 268 -128
658 -94 325 -104 386 -104 651 0 241 9 312 62 495 40 138 152 387 194 430 5 5
9 13 9 17 0 4 -136 8 -302 8 l-301 0 6 -98 c9 -156 42 -286 152 -617 128 -380
148 -470 148 -660 0 -199 -35 -382 -123 -647 -63 -190 -153 -411 -161 -396 -5
9 -918 2283 -966 2406 -4 9 -65 12 -257 12 l-253 0 67 -167z"/>
<path d="M28565 3751 c125 -295 219 -594 255 -806 19 -109 21 -154 17 -275 -7
-179 -31 -291 -123 -554 -126 -363 -162 -505 -180 -709 l-7 -79 404 4 c369 4
413 6 512 27 376 77 682 264 857 521 57 84 134 248 159 340 48 173 65 429 40
606 -66 476 -387 805 -917 938 -198 50 -283 58 -679 63 l-372 5 34 -81z m785
12 c52 -8 137 -30 188 -49 312 -111 445 -336 483 -819 46 -581 -81 -1041 -365
-1320 -132 -130 -254 -189 -392 -190 -59 0 -80 5 -130 30 -57 29 -60 33 -106
125 -117 237 -178 542 -164 818 4 82 28 254 70 505 81 474 104 638 112 801 l7
128 101 -6 c56 -4 144 -14 196 -23z"/>
<path d="M31427 3748 c58 -200 54 -378 -12 -576 -19 -57 -80 -197 -134 -311
-233 -486 -381 -989 -397 -1346 -2 -66 -7 -135 -9 -152 l-4 -33 275 0 c152 0
274 3 272 8 -1 4 -38 77 -80 162 -76 153 -133 305 -162 428 l-14 62 544 0 544
0 0 -112 c0 -141 -16 -319 -39 -449 l-17 -99 248 0 248 0 7 28 c16 56 8 214
-16 297 -46 164 -90 262 -372 815 -91 179 -189 381 -218 450 -113 268 -182
523 -200 741 -5 63 -15 126 -22 142 l-12 27 -227 0 -227 0 24 -82z m479 -413
c18 -77 74 -268 124 -425 129 -403 177 -596 205 -817 l7 -53 -545 0 -545 0 -7
77 c-11 112 0 286 24 375 45 173 127 307 383 628 172 216 240 313 280 394 l23
49 9 -44 c4 -24 23 -107 42 -184z"/>
<path d="M33150 3663 c167 -417 240 -708 240 -952 0 -192 -22 -288 -160 -701
-54 -162 -106 -331 -114 -375 -16 -79 -36 -239 -36 -282 l0 -23 305 0 305 0
-24 38 c-77 123 -161 322 -199 477 -42 166 -51 250 -51 445 0 224 17 328 101
613 84 289 122 440 129 518 4 38 10 72 14 74 3 2 202 -483 441 -1078 l435
-1082 251 -3 c248 -2 252 -2 263 19 29 53 52 141 57 220 10 144 -14 268 -128
658 -94 325 -104 386 -104 651 0 241 9 312 62 495 40 138 152 387 194 430 5 5
9 13 9 17 0 4 -136 8 -302 8 l-301 0 6 -98 c9 -156 42 -286 152 -617 128 -380
148 -470 148 -660 0 -199 -35 -382 -123 -647 -63 -190 -153 -411 -161 -396 -5
9 -918 2283 -966 2406 -4 9 -65 12 -257 12 l-253 0 67 -167z"/>
<path d="M35520 3528 l0 -303 41 66 c62 102 166 227 244 292 85 71 240 150
350 177 73 19 321 47 330 39 2 -2 5 -220 6 -484 4 -567 12 -505 -136 -1105
-109 -445 -144 -622 -152 -772 l-6 -108 302 0 c167 0 301 3 299 8 -2 4 -15 30
-29 57 -60 114 -112 297 -148 525 -46 285 -60 504 -71 1060 -5 261 -13 553
-16 649 l-7 174 124 -6 c342 -17 552 -143 760 -456 39 -58 73 -108 75 -110 2
-2 4 131 4 297 l0 302 -985 0 -985 0 0 -302z"/>
<path d="M38471 3815 c-174 -32 -318 -110 -434 -235 -149 -162 -218 -412 -149
-546 30 -58 118 -134 203 -176 122 -60 324 -110 501 -124 90 -8 91 -7 -42 -49
-360 -114 -666 -405 -687 -653 -8 -92 17 -199 70 -305 32 -64 60 -101 126
-167 98 -97 166 -140 284 -181 362 -125 744 0 988 324 54 72 159 261 159 287
0 21 -32 8 -83 -33 -247 -201 -804 -308 -1192 -228 -276 57 -370 215 -260 437
46 94 166 220 284 298 198 131 444 219 656 234 88 7 90 8 90 32 0 23 -4 25
-55 27 -451 19 -664 55 -833 139 -125 63 -187 149 -187 259 0 137 90 222 285
272 101 25 508 26 642 0 248 -47 468 -135 583 -234 38 -33 70 -43 70 -22 0 25
-108 219 -162 290 -210 279 -534 412 -857 354z"/>
</g>
</svg>
